<mxfile host="65bd71144e">
    <diagram id="VT18WG16-8FDoh_S-0IY" name="Page-1">
        <mxGraphModel dx="498" dy="477" grid="1" gridSize="10" guides="1" tooltips="1" connect="1" arrows="1" fold="1" page="1" pageScale="1" pageWidth="1169" pageHeight="827" math="0" shadow="0">
            <root>
                <mxCell id="0"/>
                <mxCell id="1" parent="0"/>
                <mxCell id="2" value="Data&lt;br&gt;Descripteur&lt;br&gt;Descripteur 2&lt;br&gt;Descripteur 3" style="rounded=0;whiteSpace=wrap;html=1;" vertex="1" parent="1">
                    <mxGeometry x="40" y="230" width="100" height="80" as="geometry"/>
                </mxCell>
                <mxCell id="3" value="Data" style="rounded=0;whiteSpace=wrap;html=1;" vertex="1" parent="1">
                    <mxGeometry x="230" y="210" width="100" height="60" as="geometry"/>
                </mxCell>
                <mxCell id="4" value="" style="curved=1;endArrow=classic;html=1;entryX=-0.04;entryY=0.68;entryDx=0;entryDy=0;entryPerimeter=0;" edge="1" parent="1" target="3">
                    <mxGeometry width="50" height="50" relative="1" as="geometry">
                        <mxPoint x="130" y="260" as="sourcePoint"/>
                        <mxPoint x="190" y="220" as="targetPoint"/>
                        <Array as="points">
                            <mxPoint x="190" y="270"/>
                            <mxPoint x="140" y="220"/>
                        </Array>
                    </mxGeometry>
                </mxCell>
                <mxCell id="5" value="Data&lt;br&gt;Descripteur" style="rounded=0;whiteSpace=wrap;html=1;" vertex="1" parent="1">
                    <mxGeometry x="190" y="330" width="100" height="60" as="geometry"/>
                </mxCell>
                <mxCell id="6" value="Data" style="rounded=0;whiteSpace=wrap;html=1;" vertex="1" parent="1">
                    <mxGeometry x="380" y="340" width="100" height="40" as="geometry"/>
                </mxCell>
                <mxCell id="7" value="" style="curved=1;endArrow=classic;html=1;entryX=0;entryY=0.5;entryDx=0;entryDy=0;entryPerimeter=0;" edge="1" parent="1" target="6">
                    <mxGeometry width="50" height="50" relative="1" as="geometry">
                        <mxPoint x="280" y="370" as="sourcePoint"/>
                        <mxPoint x="340" y="330" as="targetPoint"/>
                        <Array as="points">
                            <mxPoint x="340" y="380"/>
                            <mxPoint x="340" y="340"/>
                        </Array>
                    </mxGeometry>
                </mxCell>
                <mxCell id="9" value="" style="endArrow=classic;html=1;entryX=-0.02;entryY=0.065;entryDx=0;entryDy=0;entryPerimeter=0;" edge="1" parent="1" source="2" target="5">
                    <mxGeometry width="50" height="50" relative="1" as="geometry">
                        <mxPoint x="110" y="370" as="sourcePoint"/>
                        <mxPoint x="160" y="320" as="targetPoint"/>
                    </mxGeometry>
                </mxCell>
                <mxCell id="11" value="" style="endArrow=classic;html=1;entryX=-0.01;entryY=0.076;entryDx=0;entryDy=0;entryPerimeter=0;exitX=0.59;exitY=0.995;exitDx=0;exitDy=0;exitPerimeter=0;" edge="1" parent="1" source="2">
                    <mxGeometry width="50" height="50" relative="1" as="geometry">
                        <mxPoint x="50" y="414" as="sourcePoint"/>
                        <mxPoint x="179" y="502.9200000000001" as="targetPoint"/>
                    </mxGeometry>
                </mxCell>
                <mxCell id="12" value="Data&lt;br&gt;Descripteur&lt;br&gt;Descripteur 2" style="rounded=0;whiteSpace=wrap;html=1;" vertex="1" parent="1">
                    <mxGeometry x="180" y="500" width="100" height="80" as="geometry"/>
                </mxCell>
                <mxCell id="13" value="Data" style="rounded=0;whiteSpace=wrap;html=1;" vertex="1" parent="1">
                    <mxGeometry x="360" y="520" width="100" height="30" as="geometry"/>
                </mxCell>
                <mxCell id="14" value="" style="curved=1;endArrow=classic;html=1;entryX=-0.04;entryY=0.68;entryDx=0;entryDy=0;entryPerimeter=0;" edge="1" parent="1" target="13">
                    <mxGeometry width="50" height="50" relative="1" as="geometry">
                        <mxPoint x="260" y="540" as="sourcePoint"/>
                        <mxPoint x="320" y="500" as="targetPoint"/>
                        <Array as="points">
                            <mxPoint x="320" y="550"/>
                            <mxPoint x="300" y="510"/>
                        </Array>
                    </mxGeometry>
                </mxCell>
                <mxCell id="15" value="Data&lt;br&gt;Descripteur" style="rounded=0;whiteSpace=wrap;html=1;" vertex="1" parent="1">
                    <mxGeometry x="320" y="620" width="100" height="50" as="geometry"/>
                </mxCell>
                <mxCell id="16" value="Data" style="rounded=0;whiteSpace=wrap;html=1;" vertex="1" parent="1">
                    <mxGeometry x="500" y="640" width="100" height="30" as="geometry"/>
                </mxCell>
                <mxCell id="17" value="" style="curved=1;endArrow=classic;html=1;entryX=-0.04;entryY=0.68;entryDx=0;entryDy=0;entryPerimeter=0;" edge="1" parent="1" target="16">
                    <mxGeometry width="50" height="50" relative="1" as="geometry">
                        <mxPoint x="400" y="660" as="sourcePoint"/>
                        <mxPoint x="460" y="620" as="targetPoint"/>
                        <Array as="points">
                            <mxPoint x="460" y="670"/>
                            <mxPoint x="440" y="630"/>
                        </Array>
                    </mxGeometry>
                </mxCell>
                <mxCell id="18" value="" style="endArrow=classic;html=1;entryX=-0.02;entryY=0.065;entryDx=0;entryDy=0;entryPerimeter=0;exitX=0.5;exitY=1;exitDx=0;exitDy=0;" edge="1" parent="1" source="12" target="15">
                    <mxGeometry width="50" height="50" relative="1" as="geometry">
                        <mxPoint x="250" y="760" as="sourcePoint"/>
                        <mxPoint x="300" y="710" as="targetPoint"/>
                    </mxGeometry>
                </mxCell>
            </root>
        </mxGraphModel>
    </diagram>
</mxfile>